<mxfile host="Electron" modified="2023-05-03T11:46:28.579Z" agent="Mozilla/5.0 (X11; Linux x86_64) AppleWebKit/537.36 (KHTML, like Gecko) draw.io/21.2.1 Chrome/112.0.5615.87 Electron/24.1.2 Safari/537.36" etag="Wd3SGyGXqls6GxiZoHKL" version="21.2.1" type="device">
  <diagram name="Page-1" id="sfd_op3ERIZPFkBtN3zS">
    <mxGraphModel dx="900" dy="590" grid="1" gridSize="10" guides="1" tooltips="1" connect="1" arrows="1" fold="1" page="1" pageScale="1" pageWidth="850" pageHeight="1100" math="0" shadow="0">
      <root>
        <mxCell id="0" />
        <mxCell id="1" parent="0" />
        <mxCell id="mGj4mYotqyc_jIRH-rkN-2" value="jar" style="rounded=1;whiteSpace=wrap;html=1;fontFamily=Fira Mono;movable=0;resizable=0;rotatable=0;deletable=0;editable=0;locked=1;connectable=0;" vertex="1" parent="1">
          <mxGeometry x="60" y="395" width="80" height="30" as="geometry" />
        </mxCell>
        <mxCell id="mGj4mYotqyc_jIRH-rkN-29" value="" style="edgeStyle=orthogonalEdgeStyle;rounded=0;orthogonalLoop=1;jettySize=auto;html=1;" edge="1" parent="1" source="mGj4mYotqyc_jIRH-rkN-3" target="mGj4mYotqyc_jIRH-rkN-7">
          <mxGeometry relative="1" as="geometry" />
        </mxCell>
        <mxCell id="mGj4mYotqyc_jIRH-rkN-3" value="jar" style="rounded=1;whiteSpace=wrap;html=1;fontFamily=Fira Mono;movable=1;resizable=1;rotatable=1;deletable=1;editable=1;locked=0;connectable=1;" vertex="1" parent="1">
          <mxGeometry x="65" y="400" width="80" height="30" as="geometry" />
        </mxCell>
        <mxCell id="mGj4mYotqyc_jIRH-rkN-4" value="jar" style="rounded=1;whiteSpace=wrap;html=1;fontFamily=Fira Mono;movable=1;resizable=1;rotatable=1;deletable=1;editable=1;locked=0;connectable=1;" vertex="1" parent="1">
          <mxGeometry x="70" y="405" width="80" height="30" as="geometry" />
        </mxCell>
        <mxCell id="mGj4mYotqyc_jIRH-rkN-5" value="Classpath" style="text;html=1;strokeColor=none;fillColor=none;align=center;verticalAlign=middle;whiteSpace=wrap;rounded=0;fontFamily=Fira Mono;movable=1;resizable=1;rotatable=1;deletable=1;editable=1;locked=0;connectable=1;" vertex="1" parent="1">
          <mxGeometry x="70" y="370" width="60" height="30" as="geometry" />
        </mxCell>
        <mxCell id="mGj4mYotqyc_jIRH-rkN-30" value="" style="edgeStyle=orthogonalEdgeStyle;rounded=0;orthogonalLoop=1;jettySize=auto;html=1;" edge="1" parent="1" source="mGj4mYotqyc_jIRH-rkN-7" target="mGj4mYotqyc_jIRH-rkN-8">
          <mxGeometry relative="1" as="geometry" />
        </mxCell>
        <mxCell id="mGj4mYotqyc_jIRH-rkN-33" style="rounded=0;orthogonalLoop=1;jettySize=auto;html=1;exitX=0;exitY=1;exitDx=0;exitDy=0;entryX=0;entryY=0;entryDx=0;entryDy=0;endArrow=none;endFill=0;dashed=1;" edge="1" parent="1" source="mGj4mYotqyc_jIRH-rkN-7" target="mGj4mYotqyc_jIRH-rkN-10">
          <mxGeometry relative="1" as="geometry" />
        </mxCell>
        <mxCell id="mGj4mYotqyc_jIRH-rkN-7" value="Kfg" style="shape=ext;double=1;rounded=1;whiteSpace=wrap;html=1;fontFamily=Fira Mono;fontSize=20;movable=1;resizable=1;rotatable=1;deletable=1;editable=1;locked=0;connectable=1;" vertex="1" parent="1">
          <mxGeometry x="210" y="390" width="60" height="50" as="geometry" />
        </mxCell>
        <mxCell id="mGj4mYotqyc_jIRH-rkN-31" value="" style="edgeStyle=orthogonalEdgeStyle;rounded=0;orthogonalLoop=1;jettySize=auto;html=1;" edge="1" parent="1" source="mGj4mYotqyc_jIRH-rkN-8" target="mGj4mYotqyc_jIRH-rkN-9">
          <mxGeometry relative="1" as="geometry" />
        </mxCell>
        <mxCell id="mGj4mYotqyc_jIRH-rkN-8" value="PS" style="shape=ext;double=1;rounded=1;whiteSpace=wrap;html=1;fontFamily=Fira Mono;fontSize=20;movable=1;resizable=1;rotatable=1;deletable=1;editable=1;locked=0;connectable=1;" vertex="1" parent="1">
          <mxGeometry x="350" y="390" width="60" height="50" as="geometry" />
        </mxCell>
        <mxCell id="mGj4mYotqyc_jIRH-rkN-32" value="" style="edgeStyle=orthogonalEdgeStyle;rounded=0;orthogonalLoop=1;jettySize=auto;html=1;exitX=1;exitY=0.5;exitDx=0;exitDy=0;entryX=0;entryY=0.828;entryDx=0;entryDy=0;entryPerimeter=0;" edge="1" parent="1" source="mGj4mYotqyc_jIRH-rkN-9" target="mGj4mYotqyc_jIRH-rkN-23">
          <mxGeometry relative="1" as="geometry" />
        </mxCell>
        <mxCell id="mGj4mYotqyc_jIRH-rkN-9" value="SMT" style="shape=ext;double=1;rounded=1;whiteSpace=wrap;html=1;fontFamily=Fira Mono;fontSize=20;movable=1;resizable=1;rotatable=1;deletable=1;editable=1;locked=0;connectable=1;" vertex="1" parent="1">
          <mxGeometry x="490" y="390" width="60" height="50" as="geometry" />
        </mxCell>
        <mxCell id="mGj4mYotqyc_jIRH-rkN-10" value="bytecode level&lt;br&gt;transformations" style="swimlane;fontStyle=0;childLayout=stackLayout;horizontal=1;startSize=30;horizontalStack=0;resizeParent=1;resizeParentMax=0;resizeLast=0;collapsible=0;marginBottom=0;whiteSpace=wrap;html=1;fontFamily=Fira Mono;strokeColor=default;swimlaneLine=1;rounded=1;container=1;movable=1;resizable=1;rotatable=1;deletable=1;editable=1;locked=0;connectable=1;" vertex="1" parent="1">
          <mxGeometry x="170" y="480" width="140" height="120" as="geometry">
            <mxRectangle x="170" y="480" width="150" height="40" as="alternateBounds" />
          </mxGeometry>
        </mxCell>
        <mxCell id="mGj4mYotqyc_jIRH-rkN-11" value="loop canonicalization" style="text;strokeColor=none;fillColor=none;align=left;verticalAlign=middle;spacingLeft=4;spacingRight=4;overflow=hidden;points=[[0,0.5],[1,0.5]];portConstraint=eastwest;rotatable=1;whiteSpace=wrap;html=1;fontFamily=Fira Mono;movable=1;resizable=1;deletable=1;editable=1;locked=0;connectable=1;" vertex="1" parent="mGj4mYotqyc_jIRH-rkN-10">
          <mxGeometry y="30" width="140" height="30" as="geometry" />
        </mxCell>
        <mxCell id="mGj4mYotqyc_jIRH-rkN-12" value="instrumentation" style="text;strokeColor=none;fillColor=none;align=left;verticalAlign=middle;spacingLeft=4;spacingRight=4;overflow=hidden;points=[[0,0.5],[1,0.5]];portConstraint=eastwest;rotatable=1;whiteSpace=wrap;html=1;fontFamily=Fira Mono;movable=1;resizable=1;deletable=1;editable=1;locked=0;connectable=1;" vertex="1" parent="mGj4mYotqyc_jIRH-rkN-10">
          <mxGeometry y="60" width="140" height="30" as="geometry" />
        </mxCell>
        <mxCell id="mGj4mYotqyc_jIRH-rkN-13" value="..." style="text;strokeColor=none;fillColor=none;align=left;verticalAlign=middle;spacingLeft=4;spacingRight=4;overflow=hidden;points=[[0,0.5],[1,0.5]];portConstraint=eastwest;rotatable=1;whiteSpace=wrap;html=1;fontFamily=Fira Mono;movable=1;resizable=1;deletable=1;editable=1;locked=0;connectable=1;" vertex="1" parent="mGj4mYotqyc_jIRH-rkN-10">
          <mxGeometry y="90" width="140" height="30" as="geometry" />
        </mxCell>
        <mxCell id="mGj4mYotqyc_jIRH-rkN-14" value="symbolic&lt;br style=&quot;font-size: 12px;&quot;&gt;transformations" style="swimlane;fontStyle=0;childLayout=stackLayout;horizontal=1;startSize=30;horizontalStack=0;resizeParent=1;resizeParentMax=0;resizeLast=0;collapsible=0;marginBottom=0;whiteSpace=wrap;html=1;expand=1;fontFamily=Fira Mono;rounded=1;movable=1;resizable=1;rotatable=1;deletable=1;editable=1;locked=0;connectable=1;fontSize=12;" vertex="1" parent="1">
          <mxGeometry x="310" y="230" width="140" height="120" as="geometry" />
        </mxCell>
        <mxCell id="mGj4mYotqyc_jIRH-rkN-15" value="intrinsics transformation" style="text;strokeColor=none;fillColor=none;align=left;verticalAlign=middle;spacingLeft=4;spacingRight=4;overflow=hidden;points=[[0,0.5],[1,0.5]];portConstraint=eastwest;rotatable=1;whiteSpace=wrap;html=1;expand=1;fontFamily=Fira Mono;movable=1;resizable=1;deletable=1;editable=1;locked=0;connectable=1;fontSize=12;" vertex="1" parent="mGj4mYotqyc_jIRH-rkN-14">
          <mxGeometry y="30" width="140" height="30" as="geometry" />
        </mxCell>
        <mxCell id="mGj4mYotqyc_jIRH-rkN-16" value="reification" style="text;strokeColor=none;fillColor=none;align=left;verticalAlign=middle;spacingLeft=4;spacingRight=4;overflow=hidden;points=[[0,0.5],[1,0.5]];portConstraint=eastwest;rotatable=1;whiteSpace=wrap;html=1;expand=1;fontFamily=Fira Mono;movable=1;resizable=1;deletable=1;editable=1;locked=0;connectable=1;fontSize=12;" vertex="1" parent="mGj4mYotqyc_jIRH-rkN-14">
          <mxGeometry y="60" width="140" height="30" as="geometry" />
        </mxCell>
        <mxCell id="mGj4mYotqyc_jIRH-rkN-17" value="..." style="text;strokeColor=none;fillColor=none;align=left;verticalAlign=middle;spacingLeft=4;spacingRight=4;overflow=hidden;points=[[0,0.5],[1,0.5]];portConstraint=eastwest;rotatable=1;whiteSpace=wrap;html=1;expand=1;fontFamily=Fira Mono;movable=1;resizable=1;deletable=1;editable=1;locked=0;connectable=1;fontSize=12;" vertex="1" parent="mGj4mYotqyc_jIRH-rkN-14">
          <mxGeometry y="90" width="140" height="30" as="geometry" />
        </mxCell>
        <mxCell id="mGj4mYotqyc_jIRH-rkN-18" value="constraint&lt;br&gt;solving" style="swimlane;fontStyle=0;childLayout=stackLayout;horizontal=1;startSize=30;horizontalStack=0;resizeParent=1;resizeParentMax=0;resizeLast=0;collapsible=0;marginBottom=0;whiteSpace=wrap;html=1;expand=1;fontFamily=Fira Mono;rounded=1;movable=1;resizable=1;rotatable=1;deletable=1;editable=1;locked=0;connectable=1;" vertex="1" parent="1">
          <mxGeometry x="450" y="480" width="140" height="120" as="geometry" />
        </mxCell>
        <mxCell id="mGj4mYotqyc_jIRH-rkN-19" value="type inference" style="text;strokeColor=none;fillColor=none;align=left;verticalAlign=middle;spacingLeft=4;spacingRight=4;overflow=hidden;points=[[0,0.5],[1,0.5]];portConstraint=eastwest;rotatable=1;whiteSpace=wrap;html=1;expand=1;fontFamily=Fira Mono;movable=1;resizable=1;deletable=1;editable=1;locked=0;connectable=1;" vertex="1" parent="mGj4mYotqyc_jIRH-rkN-18">
          <mxGeometry y="30" width="140" height="30" as="geometry" />
        </mxCell>
        <mxCell id="mGj4mYotqyc_jIRH-rkN-20" value="reachability analysis" style="text;strokeColor=none;fillColor=none;align=left;verticalAlign=middle;spacingLeft=4;spacingRight=4;overflow=hidden;points=[[0,0.5],[1,0.5]];portConstraint=eastwest;rotatable=1;whiteSpace=wrap;html=1;expand=1;fontFamily=Fira Mono;movable=1;resizable=1;deletable=1;editable=1;locked=0;connectable=1;" vertex="1" parent="mGj4mYotqyc_jIRH-rkN-18">
          <mxGeometry y="60" width="140" height="30" as="geometry" />
        </mxCell>
        <mxCell id="mGj4mYotqyc_jIRH-rkN-21" value="..." style="text;strokeColor=none;fillColor=none;align=left;verticalAlign=middle;spacingLeft=4;spacingRight=4;overflow=hidden;points=[[0,0.5],[1,0.5]];portConstraint=eastwest;rotatable=1;whiteSpace=wrap;html=1;expand=1;fontFamily=Fira Mono;movable=1;resizable=1;deletable=1;editable=1;locked=0;connectable=1;" vertex="1" parent="mGj4mYotqyc_jIRH-rkN-18">
          <mxGeometry y="90" width="140" height="30" as="geometry" />
        </mxCell>
        <mxCell id="mGj4mYotqyc_jIRH-rkN-22" value="resulting&lt;br&gt;artifacts" style="swimlane;fontStyle=0;childLayout=stackLayout;horizontal=1;startSize=30;horizontalStack=0;resizeParent=1;resizeParentMax=0;resizeLast=0;collapsible=0;marginBottom=0;whiteSpace=wrap;html=1;expand=1;fontFamily=Fira Mono;rounded=1;movable=1;resizable=1;rotatable=1;deletable=1;editable=1;locked=0;connectable=1;" vertex="1" parent="1">
          <mxGeometry x="630" y="360" width="140" height="120" as="geometry" />
        </mxCell>
        <mxCell id="mGj4mYotqyc_jIRH-rkN-23" value="generated tests" style="text;strokeColor=none;fillColor=none;align=left;verticalAlign=middle;spacingLeft=4;spacingRight=4;overflow=hidden;points=[[0,0.5],[1,0.5]];portConstraint=eastwest;rotatable=1;whiteSpace=wrap;html=1;expand=1;fontFamily=Fira Mono;movable=1;resizable=1;deletable=1;editable=1;locked=0;connectable=1;" vertex="1" parent="mGj4mYotqyc_jIRH-rkN-22">
          <mxGeometry y="30" width="140" height="30" as="geometry" />
        </mxCell>
        <mxCell id="mGj4mYotqyc_jIRH-rkN-24" value="error reports" style="text;strokeColor=none;fillColor=none;align=left;verticalAlign=middle;spacingLeft=4;spacingRight=4;overflow=hidden;points=[[0,0.5],[1,0.5]];portConstraint=eastwest;rotatable=1;whiteSpace=wrap;html=1;expand=1;fontFamily=Fira Mono;movable=1;resizable=1;deletable=1;editable=1;locked=0;connectable=1;" vertex="1" parent="mGj4mYotqyc_jIRH-rkN-22">
          <mxGeometry y="60" width="140" height="30" as="geometry" />
        </mxCell>
        <mxCell id="mGj4mYotqyc_jIRH-rkN-25" value="..." style="text;strokeColor=none;fillColor=none;align=left;verticalAlign=middle;spacingLeft=4;spacingRight=4;overflow=hidden;points=[[0,0.5],[1,0.5]];portConstraint=eastwest;rotatable=1;whiteSpace=wrap;html=1;expand=1;fontFamily=Fira Mono;movable=1;resizable=1;deletable=1;editable=1;locked=0;connectable=1;" vertex="1" parent="mGj4mYotqyc_jIRH-rkN-22">
          <mxGeometry y="90" width="140" height="30" as="geometry" />
        </mxCell>
        <mxCell id="mGj4mYotqyc_jIRH-rkN-34" style="rounded=0;orthogonalLoop=1;jettySize=auto;html=1;exitX=1;exitY=1;exitDx=0;exitDy=0;entryX=1;entryY=0;entryDx=0;entryDy=0;endArrow=none;endFill=0;dashed=1;" edge="1" parent="1" source="mGj4mYotqyc_jIRH-rkN-7" target="mGj4mYotqyc_jIRH-rkN-10">
          <mxGeometry relative="1" as="geometry">
            <mxPoint x="220" y="450" as="sourcePoint" />
            <mxPoint x="180" y="490" as="targetPoint" />
          </mxGeometry>
        </mxCell>
        <mxCell id="mGj4mYotqyc_jIRH-rkN-35" style="rounded=0;orthogonalLoop=1;jettySize=auto;html=1;exitX=0;exitY=0;exitDx=0;exitDy=0;entryX=0;entryY=1.009;entryDx=0;entryDy=0;endArrow=none;endFill=0;dashed=1;entryPerimeter=0;" edge="1" parent="1" source="mGj4mYotqyc_jIRH-rkN-8" target="mGj4mYotqyc_jIRH-rkN-17">
          <mxGeometry relative="1" as="geometry">
            <mxPoint x="230" y="460" as="sourcePoint" />
            <mxPoint x="190" y="500" as="targetPoint" />
          </mxGeometry>
        </mxCell>
        <mxCell id="mGj4mYotqyc_jIRH-rkN-36" style="rounded=0;orthogonalLoop=1;jettySize=auto;html=1;exitX=1;exitY=0;exitDx=0;exitDy=0;entryX=0.999;entryY=1;entryDx=0;entryDy=0;endArrow=none;endFill=0;dashed=1;entryPerimeter=0;" edge="1" parent="1" source="mGj4mYotqyc_jIRH-rkN-8" target="mGj4mYotqyc_jIRH-rkN-17">
          <mxGeometry relative="1" as="geometry">
            <mxPoint x="240" y="470" as="sourcePoint" />
            <mxPoint x="200" y="510" as="targetPoint" />
          </mxGeometry>
        </mxCell>
        <mxCell id="mGj4mYotqyc_jIRH-rkN-37" style="rounded=0;orthogonalLoop=1;jettySize=auto;html=1;exitX=0;exitY=1;exitDx=0;exitDy=0;entryX=0;entryY=0;entryDx=0;entryDy=0;endArrow=none;endFill=0;dashed=1;" edge="1" parent="1" source="mGj4mYotqyc_jIRH-rkN-9" target="mGj4mYotqyc_jIRH-rkN-18">
          <mxGeometry relative="1" as="geometry">
            <mxPoint x="250" y="480" as="sourcePoint" />
            <mxPoint x="210" y="520" as="targetPoint" />
          </mxGeometry>
        </mxCell>
        <mxCell id="mGj4mYotqyc_jIRH-rkN-38" style="rounded=0;orthogonalLoop=1;jettySize=auto;html=1;exitX=1;exitY=1;exitDx=0;exitDy=0;entryX=1;entryY=0;entryDx=0;entryDy=0;endArrow=none;endFill=0;dashed=1;" edge="1" parent="1" source="mGj4mYotqyc_jIRH-rkN-9" target="mGj4mYotqyc_jIRH-rkN-18">
          <mxGeometry relative="1" as="geometry">
            <mxPoint x="260" y="490" as="sourcePoint" />
            <mxPoint x="220" y="530" as="targetPoint" />
          </mxGeometry>
        </mxCell>
      </root>
    </mxGraphModel>
  </diagram>
</mxfile>
